Coordinates
version=1
nRows=17
nColumns=40
inDegrees=yes

Units are S.I. units (second, meters, Newtons, ...)
If the header above contains a line with 'inDegrees', this indicates whether rotational values are in degrees (yes) or radians (no).

endheader
time	pelvis_tilt	pelvis_list	pelvis_rotation	pelvis_tx	pelvis_ty	pelvis_tz	hip_flexion_r	hip_adduction_r	hip_rotation_r	knee_angle_r	knee_angle_r_beta	ankle_angle_r	subtalar_angle_r	mtp_angle_r	hip_flexion_l	hip_adduction_l	hip_rotation_l	knee_angle_l	knee_angle_l_beta	ankle_angle_l	subtalar_angle_l	mtp_angle_l	lumbar_extension	lumbar_bending	lumbar_rotation	arm_flex_r	arm_add_r	arm_rot_r	elbow_flex_r	pro_sup_r	wrist_flex_r	wrist_dev_r	arm_flex_l	arm_add_l	arm_rot_l	elbow_flex_l	pro_sup_l	wrist_flex_l	wrist_dev_l
      1.51000000	      1.24144843	     -3.87008938	      1.73350694	      0.18279699	      0.44810891	     -1.22516651	     87.09706717	    -49.17402612	     22.09544237	    121.91857833	      2.12788061	     34.72162927	     23.38253320	      0.00000000	    100.02850836	    -46.75389855	     31.92113948	    124.49268932	      2.17280732	     34.04104122	     27.90929032	      0.00000000	    -41.88158739	      5.31609749	     -4.21033166	     44.99992247	    -14.99999999	     44.99992247	     75.00017585	     45.00000026	      0.00000000	      0.00000000	     44.99992247	    -14.99999999	     44.99992247	     75.00017585	     45.00000026	      0.00000000	      0.00000000
      1.51500000	      1.47865777	     -4.01021369	      1.74962470	      0.18276389	      0.44780283	     -1.22542512	     86.72135142	    -49.19608595	     21.93814059	    121.96786763	      2.12874087	     34.76598511	     23.45764043	      0.00000000	    100.07942027	    -46.76569080	     32.26652551	    124.59688634	      2.17462590	     34.09428841	     28.00972387	      0.00000000	    -42.20789304	      5.40355956	     -4.20618681	     44.99992267	    -14.99999999	     44.99992267	     75.00017585	     45.00000026	      0.00000000	      0.00000000	     44.99992267	    -14.99999999	     44.99992267	     75.00017585	     45.00000026	      0.00000000	      0.00000000
      1.52000000	      1.75717892	     -4.10059226	      1.77841826	      0.18266727	      0.44766579	     -1.22564433	     86.33953022	    -49.21952613	     21.84141923	    122.01473497	      2.12955886	     34.84333911	     23.47647224	      0.00000000	     99.98997398	    -46.77527066	     32.49362788	    124.67637665	      2.17601327	     34.13719932	     28.14588677	      0.00000000	    -42.62473492	      5.50222335	     -4.18746188	     44.99992284	    -14.99999999	     44.99992284	     75.00017585	     45.00000026	      0.00000000	      0.00000000	     44.99992284	    -14.99999999	     44.99992284	     75.00017585	     45.00000026	      0.00000000	      0.00000000
      1.52500000	      1.68626885	     -4.16928614	      1.78797984	      0.18266881	      0.44644355	     -1.22583416	     86.56277965	    -49.21277272	     21.96154570	    122.13323947	      2.13162715	     34.80738792	     23.52732111	      0.00000000	    100.37298617	    -46.67492547	     32.79900679	    124.83121765	      2.17871576	     34.13421842	     28.13426988	      0.00000000	    -42.52711977	      5.56251667	     -4.22436344	     44.99992299	    -14.99999999	     44.99992299	     75.00017585	     45.00000026	      0.00000000	      0.00000000	     44.99992299	    -14.99999999	     44.99992299	     75.00017585	     45.00000026	      0.00000000	      0.00000000
      1.53000000	      1.82265004	     -4.08903609	      1.77583481	      0.18261426	      0.44584692	     -1.22580326	     86.69111186	    -49.21155472	     22.27091681	    122.23323828	      2.13337246	     34.80885210	     23.62316578	      0.00000000	    100.26391833	    -46.71825224	     32.79083402	    124.93132721	      2.18046300	     34.18145531	     28.19680254	      0.00000000	    -42.70825298	      5.49023312	     -4.17096737	     44.99992313	    -14.99999999	     44.99992313	     75.00017585	     45.00000026	      0.00000000	      0.00000000	     44.99992313	    -14.99999999	     44.99992313	     75.00017585	     45.00000026	      0.00000000	      0.00000000
      1.53500000	      2.02135656	     -4.08730824	      1.77114550	      0.18255099	      0.44546272	     -1.22588571	     86.58462108	    -49.21208802	     22.39628768	    122.30226112	      2.13457714	     34.80274830	     23.72359789	      0.00000000	    100.18315962	    -46.76241981	     32.89896485	    125.03213468	      2.18222242	     34.21172714	     28.26896474	      0.00000000	    -42.93837499	      5.51025283	     -4.10657052	     44.99992326	    -14.99999999	     44.99992326	     75.00017585	     45.00000026	      0.00000000	      0.00000000	     44.99992326	    -14.99999999	     44.99992326	     75.00017585	     45.00000026	      0.00000000	      0.00000000
      1.54000000	      2.10204408	     -4.16284361	      1.80255749	      0.18250923	      0.44479532	     -1.22608631	     86.53602749	    -49.23344503	     22.40643032	    122.38465036	      2.13601510	     34.84999737	     23.74502124	      0.00000000	    100.32554804	    -46.69691397	     33.14420849	    125.13167590	      2.18395974	     34.25197057	     28.32120703	      0.00000000	    -43.10753520	      5.57572962	     -4.14690084	     44.99992337	    -14.99999999	     44.99992337	     75.00017585	     45.00000026	      0.00000000	      0.00000000	     44.99992337	    -14.99999999	     44.99992337	     75.00017585	     45.00000026	      0.00000000	      0.00000000
      1.54500000	      2.19890537	     -4.04538285	      1.79602370	      0.18244985	      0.44413256	     -1.22603055	     86.76712710	    -49.23199468	     22.79108546	    122.48945233	      2.13784424	     34.84726595	     23.83654942	      0.00000000	    100.20280033	    -46.72176102	     33.07399405	    125.23099311	      2.18569316	     34.30765929	     28.34736754	      0.00000000	    -43.24534576	      5.44944829	     -4.12514071	     44.99992346	    -14.99999999	     44.99992346	     75.00017585	     45.00000026	      0.00000000	      0.00000000	     44.99992346	    -14.99999999	     44.99992346	     75.00017585	     45.00000026	      0.00000000	      0.00000000
      1.55000000	      2.34363240	     -4.12874031	      1.80917313	      0.18239512	      0.44369902	     -1.22620691	     86.59607056	    -49.23706835	     22.75070243	    122.55280151	      2.13894989	     34.87256617	     23.88572301	      0.00000000	    100.27742605	    -46.70785904	     33.31848351	    125.32060787	      2.18725723	     34.33501389	     28.41164690	      0.00000000	    -43.45721783	      5.51026337	     -4.11549714	     44.99992355	    -14.99999999	     44.99992355	     75.00017585	     45.00000026	      0.00000000	      0.00000000	     44.99992355	    -14.99999999	     44.99992355	     75.00017585	     45.00000026	      0.00000000	      0.00000000
      1.55500000	      2.84147244	     -4.26097852	      1.85788192	      0.18224650	      0.44436691	     -1.22645374	     85.74621193	    -49.27653215	     22.43494491	    122.52753307	      2.13850888	     35.01548839	     23.96998054	      0.00000000	     99.92204428	    -46.78259945	     33.54029391	    125.34123477	      2.18761724	     34.36249774	     28.66280440	      0.00000000	    -44.15917257	      5.61319284	     -4.12034119	     44.99992362	    -14.99999999	     44.99992362	     75.00017585	     45.00000026	      0.00000000	      0.00000000	     44.99992362	    -14.99999999	     44.99992362	     75.00017585	     45.00000026	      0.00000000	      0.00000000
      1.56000000	      2.56909505	     -4.20529895	      1.85536426	      0.18227568	      0.44261302	     -1.22649462	     86.48994259	    -49.26011333	     22.87567503	    122.70229331	      2.14155902	     34.91952856	     23.92026925	      0.00000000	    100.38421407	    -46.64034226	     33.66327450	    125.50967424	      2.19055706	     34.39399364	     28.52324606	      0.00000000	    -43.77018181	      5.59437367	     -4.07524812	     44.99992369	    -14.99999999	     44.99992369	     75.00017585	     45.00000026	      0.00000000	      0.00000000	     44.99992369	    -14.99999999	     44.99992369	     75.00017585	     45.00000026	      0.00000000	      0.00000000
      1.56500000	      2.66690023	     -4.17441080	      1.84658496	      0.18225331	      0.44203097	     -1.22649958	     86.56326069	    -49.24710636	     23.07234364	    122.79274807	      2.14313775	     34.93940822	     23.96267116	      0.00000000	    100.37256797	    -46.66388426	     33.73037801	    125.60201943	      2.19216879	     34.43218497	     28.57510876	      0.00000000	    -43.89465593	      5.57372897	     -4.04490347	     44.99992375	    -14.99999999	     44.99992375	     75.00017585	     45.00000026	      0.00000000	      0.00000000	     44.99992375	    -14.99999999	     44.99992375	     75.00017585	     45.00000026	      0.00000000	      0.00000000
      1.57000000	      2.76159299	     -4.20158889	      1.86170150	      0.18222062	      0.44145747	     -1.22661453	     86.55021197	    -49.25430131	     23.15935910	    122.87350514	      2.14454723	     34.95962393	     23.99262310	      0.00000000	    100.43570848	    -46.64035099	     33.89211879	    125.69955575	      2.19387112	     34.45517706	     28.61455339	      0.00000000	    -44.02235610	      5.59103532	     -4.04919626	     44.99992381	    -14.99999999	     44.99992381	     75.00017585	     45.00000026	      0.00000000	      0.00000000	     44.99992381	    -14.99999999	     44.99992381	     75.00017585	     45.00000026	      0.00000000	      0.00000000
      1.57500000	      2.95976448	     -4.24560949	      1.87884955	      0.18215190	      0.44132802	     -1.22669979	     86.32705299	    -49.27547326	     23.12563341	    122.91467170	      2.14526572	     34.97421520	     24.07940493	      0.00000000	    100.35130255	    -46.65937334	     34.03330809	    125.75127476	      2.19477378	     34.50944083	     28.67357884	      0.00000000	    -44.34470133	      5.57527910	     -4.02229854	     44.99992386	    -14.99999999	     44.99992386	     75.00017585	     45.00000026	      0.00000000	      0.00000000	     44.99992386	    -14.99999999	     44.99992386	     75.00017585	     45.00000026	      0.00000000	      0.00000000
      1.58000000	      3.08701576	     -3.84864999	      1.78648500	      0.18211949	      0.44074647	     -1.22621642	     86.94329074	    -49.21324777	     24.04567213	    123.05778026	      2.14776344	     34.96490212	     24.22574418	      0.00000000	     99.83021478	    -46.85266031	     33.50639201	    125.82558507	      2.19607074	     34.57707847	     28.73155867	      0.00000000	    -44.44287491	      5.29407278	     -3.87682776	     44.99992394	    -14.99999999	     44.99992394	     75.00017585	     45.00000026	      0.00000000	      0.00000000	     44.99992394	    -14.99999999	     44.99992394	     75.00017585	     45.00000026	      0.00000000	      0.00000000
      1.58500000	      3.15001480	     -4.07933761	      1.85696838	      0.18210535	      0.44016126	     -1.22663439	     86.64611094	    -49.25841847	     23.73651343	    123.10145439	      2.14852569	     34.97765012	     24.20418431	      0.00000000	    100.19513820	    -46.71801486	     34.00116305	    125.93290939	      2.19794391	     34.57012004	     28.78909051	      0.00000000	    -44.54320932	      5.43066130	     -4.03635875	     44.99992398	    -14.99999999	     44.99992398	     75.00017585	     45.00000026	      0.00000000	      0.00000000	     44.99992398	    -14.99999999	     44.99992398	     75.00017585	     45.00000026	      0.00000000	      0.00000000
      1.59000000	      3.78841762	     -4.30835522	      1.96196369	      0.18185379	      0.44138486	     -1.22705923	     85.38347773	    -49.34064486	     23.13338518	    123.02580266	      2.14720532	     35.19538713	     24.15154271	      0.00000000	     99.71977125	    -46.74710362	     34.30588714	    125.91090556	      2.19755987	     34.64904376	     29.01764240	      0.00000000	    -45.43199449	      5.64042196	     -4.11745242	     44.99992401	    -14.99999999	     44.99992401	     75.00017585	     45.00000026	      0.00000000	      0.00000000	     44.99992401	    -14.99999999	     44.99992401	     75.00017585	     45.00000026	      0.00000000	      0.00000000
